{"title":"Them Thar Hills(1934)MPEG-4[DaScubaDude]","uid":13259296,"size":201548766,"categoryP":"video","categoryS":"other","magnet":"?xt=urn:btih:efc48b5095325c0d1aec47e8d843853138afd09b&amp;dn=Them+Thar+Hills%281934%29MPEG-4%5BDaScubaDude%5D&amp;tr=udp%3A%2F%2Ftracker.leechers-paradise.org%3A6969&amp;tr=udp%3A%2F%2Fzer0day.ch%3A1337&amp;tr=udp%3A%2F%2Fopen.demonii.com%3A1337&amp;tr=udp%3A%2F%2Ftracker.coppersurfer.tk%3A6969&amp;tr=udp%3A%2F%2Fexodus.desync.com%3A6969","seeders":0,"leechers":0,"uploader":"dascuba","files":1,"time":1453247464,"description":"Them Thar Hills (1934)\r\nPassed  |  20 min  |  Comedy, Short  |  21 July 1934 (USA)\r\n7.8 Your rating:   -/10   Ratings: 7.8/10 from 1,327 users   \r\nReviews: 19 user | 3 critic\r\nStan and Ollie take a trip into the mountains ('the high multitude') so that Ollie can recover from gout. Bootleggers have dumped their moonshine in the well from which the boys sample ... See full summary »\r\n\r\nDirector: Charley Rogers (as Charles Rogers)\r\nStars: Stan Laurel, Oliver Hardy, Mae Busch \r\n\r\nGeneral\r\nComplete name                            :Them Thar HillsTHEM_THAR_HILLS_Title1.mp4\r\nFormat                                   : MPEG-4\r\nFormat profile                           : Base Media\r\nCodec ID                                 : isom\r\nFile size                                : 192 MiB\r\nDuration                                 : 20mn 15s\r\nOverall bit rate mode                    : Variable\r\nOverall bit rate                         : 1 326 Kbps\r\nMovie name                               : THEM_THAR_HILLS\r\nWriting application                      : Lavf54.6.100\r\n\r\nVideo\r\nID                                       : 1\r\nFormat                                   : AVC\r\nFormat/Info                              : Advanced Video Codec\r\nFormat profile                           :   \r\nFormat settings, CABAC                   : No\r\nFormat settings, ReFrames                : 6 frames\r\nFormat settings, GOP                     : M=1, N=60\r\nCodec ID                                 : avc1\r\nCodec ID/Info                            : Advanced Video Coding\r\nDuration                                 : 20mn 15s\r\nBit rate                                 : 1 193 Kbps\r\nWidth                                    : 720 pixels\r\nHeight                                   : 540 pixels\r\nDisplay aspect ratio                     : 4:3\r\nFrame rate mode                          : Constant\r\nFrame rate                               : 25.000 fps\r\nColor space                              : YUV\r\nChroma subsampling                       : 4:2:0\r\nBit depth                                : 8 bits\r\nScan type                                : Progressive\r\nBits/(Pixel*Frame)                       : 0.123\r\nStream size                              : 173 MiB (90%)\r\n\r\nAudio\r\nID                                       : 2\r\nFormat                                   : AAC\r\nFormat/Info                              : Advanced Audio Codec\r\nFormat profile                           : LC\r\nCodec ID                                 : 40\r\nDuration                                 : 20mn 15s\r\nBit rate mode                            : Variable\r\nBit rate                                 : 129 Kbps\r\nChannel(s)                               : 2 channels\r\nChannel positions                        : Front: L R\r\nSampling rate                            : 44.1 KHz\r\nCompression mode                         : Lossy\r\nStream size                              : 18.5 MiB (10%)","torrent":{"xt":"urn:btih:efc48b5095325c0d1aec47e8d843853138afd09b","amp;dn":"Them+Thar+Hills%281934%29MPEG-4%5BDaScubaDude%5D","amp;tr":["udp%3A%2F%2Ftracker.leechers-paradise.org%3A6969","udp%3A%2F%2Fzer0day.ch%3A1337","udp%3A%2F%2Fopen.demonii.com%3A1337","udp%3A%2F%2Ftracker.coppersurfer.tk%3A6969","udp%3A%2F%2Fexodus.desync.com%3A6969"],"infoHash":"efc48b5095325c0d1aec47e8d843853138afd09b","infoHashBuffer":{"type":"Buffer","data":[239,196,139,80,149,50,92,13,26,236,71,232,216,67,133,49,56,175,208,155]},"announce":[],"urlList":[]}}